<?xml version="1.0" encoding="utf-8"?>
<!-- Generator: Adobe Illustrator 23.0.6, SVG Export Plug-In . SVG Version: 6.00 Build 0)  -->
<svg version="1.1" id="圖層_1" xmlns="http://www.w3.org/2000/svg" xmlns:xlink="http://www.w3.org/1999/xlink" x="0px" y="0px"
	 viewBox="0 0 242.6 38" style="enable-background:new 0 0 242.6 38;" xml:space="preserve">
<style type="text/css">
	.st0{fill:#009E9C;}
	.st1{fill:#008FC7;}
</style>
<g>
	<path class="st0" d="M37.5,17.3C37.5,17.3,37.5,17.3,37.5,17.3c0,0,0,0.1,0.2,0.2c1.3,1,2,2.1,2,4.1c0,2.6-2.2,4.4-4.8,4.4v3.6
		c4.4,0,8.4-3.2,8.4-7.6c0-1.6-0.4-3.2-1.5-4.7c0.1-0.1,0.3-0.3,0.5-0.7c0.3-0.5,0.3-1.1,0.3-3V5.2H31.3v6.7h-3.6v3.7H35V9h4.1v5.7
		C39.1,14.7,39.2,16.3,37.5,17.3"/>
	<path class="st1" d="M27.7,5.2h-1.1v0c-1.9,0.1-3.9,0.7-5.3,2.2c-1.4,1.6-1.6,3-1.6,5.4c0,1.6,0,16.9,0,16.9h11.5v-6.6H35v-3.7
		h-7.3V26h-4.2V12c0,0-0.3-3,3.4-3.1l0.8,0L27.7,5.2z"/>
</g>
<g>
	<g>
		<path d="M65.1,19.1c0,0,0,2.8,0,2.8l-11.3,0v-3.9h9.9C65.2,18.1,65.1,19.1,65.1,19.1 M62.9,20.6v-1.2h-7v1.2H62.9z"/>
		<path d="M51.7,29.7v-6.9h14c0.3,0,0.7,0.2,0.7,0.2c0.5,0.3,0.9,0.8,0.9,1.3v5.4h-2.3v-0.5l-10.9,0v0.5L51.7,29.7 M64.9,25.3v-0.9
			h-4.4v0.9H64.9 M58.4,25.3v-0.9h-4.4v0.9H58.4 M64.9,27.7v-0.9h-4.4v0.9H64.9 M58.4,27.7v-0.9h-4.4v0.9H58.4z"/>
		<rect x="53.8" y="15.8" width="11.3" height="1.5"/>
		<path d="M50.9,17.7v-4.5h7.5V12h2.3v1.1h5.9c0,0,1.5,0.1,1.5,1.4v3.2h-2.1v-2.6H53v2.6L50.9,17.7L50.9,17.7z"/>
	</g>
	<g>
		<path d="M89.1,18.6l1.4-4.7c0.2-0.8-0.5-1.5-1.2-1.5l-6,0v17.4l2.2,0v-3.1c0,0,0.6,1,1,1.5c0.7,0,1.1-0.2,1.7-0.4
			c1.4-0.7,2.4-2.1,2.6-3.6C91,21.9,90.3,20.1,89.1,18.6 M88.6,24.2c-0.3,0.8-1.1,1.6-1.9,1.8c-0.4,0.1-0.7,0.2-1.3,0.1l0-11.5
			l2.8,0c-0.4,1.5-0.9,3.1-1.4,4.5c0.1,0.3,0.5,0.5,0.6,0.8C88.3,21.1,89.1,22.6,88.6,24.2z"/>
		<path d="M82.6,20.1v-2.2h-3.1l0-1.7h3V14h-3v-2h-2.4l0,2h-3.6v2.2h3.6l0,1.7h-3.5V20h3.6v1.6h-3.5v2.2l3.4,0
			c-0.1,2.5-2.1,4.1-2.1,4.1l1.3,1.7c3.2-1.8,3.3-5.8,3.3-5.8h3.1v-2.3h-3.1v-1.6L82.6,20.1L82.6,20.1z"/>
	</g>
	<g>
		<path d="M102.9,21.3v-2.4c-0.2,0.1-1.4,0.8-1.9,1.1v-2.9l2,0v-2.1h-2V12h-2.2v3.1h-2.5v2.1l2.5,0v4.1c-1.7,1-2.9,1.5-2.9,1.5
			s0.8,2.2,0.8,2.2c0,0,1.1-0.5,2.1-1.2c0,0,0,2.2,0,2.3c0,0.3-0.1,0.6-0.3,0.8c-0.2,0.2-0.5,0.8-1.6,1l0.9,1.8
			c2-0.2,2.6-1.3,2.6-1.3c0.4-0.5,0.6-1.5,0.6-2.4l0-3.4C102.1,21.9,102.9,21.3,102.9,21.3z"/>
		<path d="M104.5,19c1.5-1.2,1.7-3,1.8-4.8c0,0,0-0.2,0.2-0.2h2.1c0.2,0,0.2,0.2,0.2,0.2l0,3.5c0,0-0.1,1.2,1.6,1.2l2,0l0.9-1.8
			c0,0-2.1,0-2.1,0c-0.1,0-0.2-0.2-0.2-0.2l0-3.1c-0.1-0.8-0.3-1.6-1.3-1.7l-5,0c0,0-0.4,0-0.4,0.3c0,1.5-0.1,3-0.6,4.3
			c-0.1,0.4-0.3,0.7-0.6,1.2l1.2,1.2C104.3,19,104.4,19.1,104.5,19z"/>
		<path d="M112.3,20.5c0,0,0.2-1-0.5-1c-2.2,0-8.4,0-8.4,0v1.9c0,0,6,0,6.1,0c0.2,0,0.1,0.3,0.1,0.3s-0.2,1.2-1.9,2.9
			c-1.3-1.4-1.6-2.5-1.6-2.5h-2.4c0,0,0.6,1.9,2.4,3.9c-1,0.7-2.3,1.5-4.1,2.2l1.2,1.7c1.8-0.7,3.2-1.6,4.4-2.5
			c1.2,1,2.9,2.1,4.6,2.5l1-1.6c-1.7-0.7-3-1.5-4-2.3C112.1,23.1,112.3,20.5,112.3,20.5z"/>
	</g>
	<g>
		<g>
			<path d="M136.6,28.5c-0.2-0.1-1.6-1.4-2-2.2h1.5V17c0,0,0-0.7-0.3-1.1c-0.3-0.4-1-0.3-1-0.3h-1.6l0.3-1.6h2.8v-1.6h-7.8l0,1.6
				h3.1l-0.3,1.6h-2.6l0,10.7h1.3c-0.5,1-1.6,2-1.8,2.2l1.3,1.2c0.4-0.2,1.6-1.6,2.1-2.4c0.1-0.2,0.1-0.4,0-0.5
				c-0.1-0.1-0.5-0.5-0.5-0.5h2.7l-0.7,0.6c0,0-0.1,0.2,0,0.4c1.4,2,2.2,2.4,2.2,2.4L136.6,28.5 M134.3,24.6h-3.8v-1.4h3.8V24.6
				 M134.3,21.6h-3.8v-1.4h3.8V21.6 M134.3,17.7v1h-3.8v-1.5h3.3c0,0,0.3,0,0.4,0.1C134.3,17.5,134.3,17.7,134.3,17.7z"/>
			<path d="M127.6,15.1c-0.3-0.2-0.6-0.2-0.7-0.2h-5.5c0,0,0-0.2,0-0.2c3.8-0.7,5.3-1.7,5.3-1.7l-0.7-1.6c-3.6,1.6-6.5,1.8-6.5,1.8
				s0.3,12.4-1.4,14.9l1.5,1.5c0,0,1.2-1.3,1.6-7c0,0,0.5,0.6,0.5,0.7v6.2l1.6,0v-0.7h4.7v-1.3h-1.4v-1.1h1.4v-1.3h-1.4v-0.9h1.4V23
				h-1.4v-1.1h1.4v-1.2h-1.4v-1.1h-1.6v1.1h-1.2L124,20l-1.3-0.8c0,0-0.5,1.2-1.3,2.1c0,0,0.1-1.4,0.1-2.3h6.6v-2.5
				C128,16.4,128,15.3,127.6,15.1 M123.2,21.8h1.7V23h-1.7V21.8 M123.2,24.2h1.7v0.9h-1.7v-1.1 M123.2,26.4h1.7v1.1h-1.7v-1.3
				 M126.3,17.3h-5v-1h4.4c0,0,0.3,0,0.4,0.1C126.4,16.6,126.3,17.3,126.3,17.3z"/>
		</g>
	</g>
</g>
</svg>
