<svg xmlns="http://www.w3.org/2000/svg" viewBox="0 0 188 28" xml:space="preserve" enable-background="new 0 0 188 28"><g transform="translate(11 10)"><path d="M145.1-2.6V.6c.3-.5.9-.9 1.5-.9 1.8 0 2.7 1.5 2.7 3.1 0 1.5-.8 3.1-2.4 3.1-.7 0-1.4-.3-1.7-1v.8h-1.7l.1-1.2v-7.2l1.5.1zm8 2.6c1.9 0 3 1.2 3 3s-1.1 3-3 3-3-1.2-3-3 1.1-3 3-3zm-14.6.4v3.2c0 .6.2 1.2.9 1.2.5 0 .9-.5.9-1.2V.4h1.6v4.4l.1 1h-1.6l-.1-.7c-.3.5-.8.8-1.6.8-.5 0-1.5-.4-1.7-1.2l-.1-.9V.4h1.6zm21.6 0c.5 0 1.6.4 1.8 1.2l.1.9V6h-1.6V2.7c0-.6-.2-1.2-1-1.2-.5 0-.9.5-1 1.2V6h-1.6V.6h1.6v.6c.4-.4.9-.8 1.7-.8zm-24-3.4v1.4h-3.4V.5h3.2v1.4h-3.2v3.7H131V-3h5.1zm17 4.1c-1 0-1.2 1-1.2 1.9 0 .9.2 1.9 1.2 1.9s1.2-1 1.2-1.9c0-.9-.2-1.9-1.2-1.9zm-6.8-.1c-.9 0-1.2 1.1-1.2 1.9 0 .8.3 1.9 1.2 1.9 1.1 0 1.2-1 1.2-1.9 0-.9-.1-1.9-1.2-1.9zm-10.1 8v1.5h-3.4v2.2h3.2v1.5h-3.2V18H131V9h5.2zm7.1 3.1c.5 0 1.6.4 1.8 1.2l.1.9V18h-1.6v-3.4c0-.6-.2-1.3-1-1.3-.5 0-.9.5-1 1.3V18H140v-5.7h1.6v.7c.4-.5.9-.8 1.7-.9zm5.9-.4c1.1 0 2.4.4 2.4 2.2v3.2l.1.7h-1.5l-.1-.8c-.4.7-1 1-1.7 1-1.1 0-1.8-.6-1.8-1.8 0-.4.2-1.4 1.2-1.9.7-.3 1.5-.3 2.2-.3v-.6c0-.2-.2-.7-.8-.7-.6 0-.8.6-.8.9h-1.6c0-.7.3-1.2.8-1.5.4-.3 1-.4 1.6-.4zm7 .4c.5 0 1.6.4 1.8 1.2l.1.9V18h-1.6v-3.4c0-.6-.2-1.3-1-1.3-.5 0-.9.5-1 1.3V18h-1.6v-5.7h1.6v.7c.4-.5.9-.8 1.7-.9zm5.8-.4c1.5 0 2.6.9 2.6 2.3h-1.7c0-.5-.2-1.1-.9-1.1s-.8 1.4-.8 1.9.1 2 .8 2c.7 0 .9-.7.9-1.2h1.7c-.1 1.5-1 2.3-2.6 2.3-1.7 0-2.6-1.6-2.6-3.1s.8-3.1 2.6-3.1zm9.5 0c1.1 0 2.4.4 2.4 2.2v3.2l.1.7h-1.5l-.1-.8c-.4.7-1 1-1.7 1-1.1 0-1.8-.6-1.8-1.8 0-.4.2-1.4 1.2-1.9.7-.3 1.5-.3 2.2-.3v-.6c0-.2-.2-.7-.8-.7-.6 0-.8.6-.8.9h-1.6c0-.7.3-1.2.8-1.5.4-.3 1-.4 1.6-.4zM177 9v9h-1.7V9h1.7zm-38.3 2.7V18h-1.6v-6.3h1.6zm28.8 0V18h-1.6v-6.3h1.6zM148.1 16c0 .5.3.9.8.9.9 0 1-1.1 1-1.8-.6-.1-1.8-.1-1.8.9zm24.1-1c-.6 0-1.8 0-1.8.9 0 .5.3.9.8.9 1 0 1-1.1 1-1.8zm-33.5-6v1.6H137V9h1.7zm28.8 0v1.6h-1.7V9h1.7z" fill-rule="evenodd" clip-rule="evenodd" fill="#231f20"/><defs><filter id="a" filterUnits="userSpaceOnUse" x="-2" y="-10" width="18" height="28"><feColorMatrix values="1 0 0 0 0 0 1 0 0 0 0 0 1 0 0 0 0 0 1 0"/></filter></defs><mask maskUnits="userSpaceOnUse" x="-2" y="-10" width="18" height="28" id="b"><g filter="url(#a)"><path d="M-11 18h188v-28H-11v28z" fill-rule="evenodd" clip-rule="evenodd" fill="#fff"/></g></mask><path d="m9.3 3.9.2.2a5.3 5.3 0 0 1 2.3 4.7c0 3-2.6 5.1-5.5 5.1V18c5.1 0 9.7-3.6 9.7-8.8 0-1.8-.5-3.7-1.8-5.4l.5-.8c.3-.5.4-1.2.4-3.4V-10h-13v7.7H-2v4.2h8.4v-7.6h4.7V.8s.2 1.9-1.8 3.1" mask="url(#b)" fill-rule="evenodd" clip-rule="evenodd" fill="#00a9a1"/><defs><filter id="c" filterUnits="userSpaceOnUse" x="-11" y="-10" width="17" height="28"><feColorMatrix values="1 0 0 0 0 0 1 0 0 0 0 0 1 0 0 0 0 0 1 0"/></filter></defs><mask maskUnits="userSpaceOnUse" x="-11" y="-10" width="17" height="28" id="d"><g filter="url(#c)"><path d="M-11 18h188v-28H-11v28z" fill-rule="evenodd" clip-rule="evenodd" fill="#fff"/></g></mask><path d="M-2.2-10h-1.2c-2.2.1-4.4.8-5.9 2.5C-10.8-5.7-11-4-11-1.3V18H1.9v-7.6H6V6.2h-8.2v7.6h-4.7v-16s-.3-3.5 3.8-3.6h.9V-10z" mask="url(#d)" fill-rule="evenodd" clip-rule="evenodd" fill="#0094c2"/><defs><filter id="e" filterUnits="userSpaceOnUse" x="24" y="-3" width="98" height="21"><feColorMatrix values="1 0 0 0 0 0 1 0 0 0 0 0 1 0 0 0 0 0 1 0"/></filter></defs><mask maskUnits="userSpaceOnUse" x="24" y="-3" width="98" height="21" id="f"><g filter="url(#e)"><path d="M-11 18h188v-28H-11v28z" fill-rule="evenodd" clip-rule="evenodd" fill="#fff"/></g></mask><path d="M105.7-2v3.2h1.5v2.4h-1.5v3.5l1.5-1v2.8l-1.5 1.1v4.1c0 1.4-.3 2.2-.7 2.6-.3.3-.9 1-2.7 1.3l-.9-2.1c.8-.1 1.5-.7 1.7-.9l.3-.9v-2.9l-1.7 1-.1-.1-.1-.2-.7-2.1s1.1-.5 2.5-1.4V3.6h-2.2V1.2h2.2V-2h2.4zm10.2 4.3c.7 0 .9.3 1.2.8 1 2.5 2.6 5 4.9 6.6-.3.6-.9 1.1-1.4 1.6-.6-.2-1.6-1.2-1.7-1.2v1.4h-3.3v3.8h5.6v2.2h-13.5v-2.2h5.7v-3.8h-3.2V9.7c-.6.7-1.1 1.4-1.9 2l-1.4-1.8c1.4-1.3 2.5-3 3-4.7h2.1c.2 0 .2.2.2.2-.4 1.6-1 2.8-1.9 4.1h8a14 14 0 0 1-2.8-4.7l-.2-.1h-2.9V2.4H115.8l.1-.1zm-.6-4.3v1.4h4c.7 0 1.3.7 1.3 1.3v3.8h-2.2V1.8c0-.2-.1-.3-.3-.3h-8.3v2.6h-2.1V-.5h5.3V-2h2.3zm-30 1.9h.4c1 1.1 2.6 2.3 4.8 3.6h-10c2.2-1.2 3.8-2.5 4.8-3.6m5.5 10.3c-.4.9-1.4 2.9-2.2 3.9l1.3.7h-3.3v-4.6h4.2m-10.9 0h4.4v4.6h-3.5l1.2-.7a15 15 0 0 0-2.1-3.9m12-4.5V4.3l2.9 1.3L96 3.5C88.3.3 86.3-3 86.3-3h-1.6S82.7.3 75 3.5l1.2 2.1L79 4.4v1.4h5.4V8h-7.8v2.2h2.2l-1 .7s1.8 2.6 2.3 3.9h-3.5V17h17.9v-2.2H91c1-1.4 2.1-3.9 2.1-3.9l-1.1-.7h2.4V8h-7.8V5.7h5.3M40.4 9.5l.8.2c.6.3 1 .9 1 1.6V18h-2.6v-.6H27.5v.6h-2.6V9.5h15.5zm-8.1 4.9h-4.8v1.2h4.8v-1.2zm7.2 0h-4.8v1.2h4.8v-1.2zm-7.2-3h-4.8v1.2h4.8v-1.2zm7.2 0h-4.8v1.2h4.8v-1.2zm-1.4-7.3c1.5 0 1.5 1.2 1.5 1.3V9H27.4V4.1h10.7zm-.9 1.8h-7.6v1.5h7.6V5.9zM34.8-3v1.3h6.5S43-1.6 43-.1v3.8h-2.3v-3H26.4v3H24v-5.3h8.3V-3h2.5zm4.8 4.5v1.8H27.4V1.5h12.2zm28.6-3.6c.9 0 1.7.9 1.4 1.8L68 5.1a9 9 0 0 1 2 6.2 5.7 5.7 0 0 1-3 4.2c-.7.3-1.2.5-2 .5l-1.2-1.7V18h-2.5V-2.1h6.9zM56.8-3v2.4h3.5v2.5h-3.5v2h3.6v2.6h-3.6v1.9h3.6v2.7h-3.6s-.2 4.8-3.8 6.8l-1.5-2s2.3-1.9 2.5-4.8h-3.9V8.5h4.1v-2H50V4h4.1V2H50V-.6h4.1V-3h2.7zm7 3.4v13.3c.6.1 1 .1 1.5-.1.9-.3 1.8-1.2 2.2-2.1.4-1.8-.5-3.5-1.4-4.9-.2-.3-.6-.6-.7-1L67 .4h-3.2z" mask="url(#f)" fill-rule="evenodd" clip-rule="evenodd" fill="#231f20"/></g></svg>